<svg version="1.1" id="about-svg" xmlns="http://www.w3.org/2000/svg" xmlns:xlink="http://www.w3.org/1999/xlink" x="0px" y="0px" viewBox="0 0 379 353" style="enable-background:new 0 0 379 353;" xml:space="preserve">
<style type="text/css">
                        .st0{fill:#FFFFFF;}
                    </style>
<path id="mn-logo-sign-path" class="st0" d="M377.8,284.8L377.8,284.8L377.8,284.8c0.3,0.1,0.5,0.3,0.5,0.5l0.1,0v67.2h-69.4v-1
                        l0.2,0l19-18.5L309,308.3c-0.2-0.2-0.2-0.6,0.1-0.8l0.1,0l19.9-6.6l-19.9-15l-0.2,0v-1L377.8,284.8
                        C377.7,284.8,377.8,284.8,377.8,284.8z M378.2,0.8v48.6l0,9.3l0.1,0.1c0.1,0.2,0.1,0.4-0.1,0.6l0,27.8l0.5,0l-0.1,1l-0.4,0l0,0.7
                        l-74.1,72.4l0.1,0.2c0.2,0.3,0,0.7-0.3,0.8l-0.1,0l-0.7,0l-21.4,20.9l-0.7-0.7l20.7-20.2l-34.1,0l-1.7,2.4L252,211.4
                        c-0.2,0.5-0.9,0.4-1,0l0-0.1l0-28.8l-13.3-11.7l-26.5,77.6l17.7-16.7l0.7,0.7l-19.1,18l0,0.1c-0.1,0.2-0.3,0.3-0.5,0.3L190,269.7
                        c0,0-0.1,0.1-0.1,0.1l-0.3,0.3l-0.3-0.3c0,0-0.1,0-0.1-0.1l-119.4-112v194.8H0.4V182.1h1v29.5l24.4-39.2c0,0-0.1-0.1-0.1-0.1l0-0.1
                        l-24.3-87v49.5h-1V2l0.5,0l0.5-0.2l24.8,56.1l0.2-0.5l53,23.1c0.2,0.1,0.4,0.4,0.3,0.6l0,0.1l-23.5,44.3l0.1,0.1l71.5,1L49.1,49.8
                        l0.7-0.7l106.6,104.3c0.2,0,0.4,0.1,0.5,0.3l0,0.1l0.1,0.2l32.5,31.8c0,0,0.1,0,0.1,0.1L299.1,78.3l0,0c0,0,0.1-0.1,0.1-0.1l0.1,0
                        l0,0l0.1,0l36.2-9l31.2-29.7l0.3,0.3l-9.3-17.5l-18.9,18.5l-0.7-0.7L378.2,0.8z M328.7,333.8l-18.2,17.7h32L328.7,333.8z M68.9,319
                        L68.9,319l-42.6,32.5l42.6,0L68.9,319z M1.4,305.4v46.1l22.5,0L1.4,305.4z M348.5,314.6l-0.5,0.5l-3.8,36.4l33.3,0l0-32.4
                        L348.5,314.6z M346.8,316.2l-17.3,16.9l13.7,17.6L346.8,316.2z M54.7,283.6L26,350.4l41.9-32L54.7,283.6z M48.3,266.7l-33.3,26
                        l9.9,57.5l29.2-68L48.3,266.7z M14.2,293.5l-12.6,9.9l22.1,45.3L14.2,293.5z M310.5,308.6l18.4,23.7l18.1-17.7l0-0.2l-0.1,0
                        L310.5,308.6z M68.9,250.7l-13.6,31.6l13.6,35.9V250.7z M377.4,286.4l-28,27.3l28,4.4V286.4z M375.8,286.5l-44.6,14.7l16.1,12.2
                        l0.8,0.1L375.8,286.5z M330.1,301.6l-18.6,6.1l33.8,5.3L330.1,301.6z M1.4,219.6v82.6l12.5-9.8L1.4,219.6z M374.6,285.8h-63.8
                        l19.4,14.7L374.6,285.8z M3.5,215.3L2,216.7l12.9,75L48,265.8l-3.7-9.8l-33.4,7.1l-0.2-1l33.3-7.1l-8.4-22.2L3.5,215.3z M67.3,251.9
                        l-18.1,14.2l5.6,14.9L67.3,251.9z M189.7,188.9l0.4,79.3l19.3-18.2L189.7,188.9z M168.9,199l-32.7,19.6l52.4,49.2L168.9,199z
                         M188.7,188.7l-2.5,0l-16.4,9.8l19.3,67.3L188.7,188.7z M66.5,251.3l-21.2,4.5l3.5,9.3L66.5,251.3z M36.9,233.6l8,21.2l22.2-4.7
                        L36.9,233.6z M68.9,188.5l-33.1,42l0.6,1.6l32.4,17.7c0.1,0,0.1,0.1,0.1,0.1l0,0l0,0L68.9,188.5z M251,126.9l-61,59.8l20,62l26.7-78
                        l-46.2,17l-0.3-0.9l47-17.3l13.9-40.7V126.9z M68.9,157.7l-64.6,57L35,231.4l-0.3-0.8c-0.1-0.1,0-0.3,0-0.4l0-0.1l33.3-42.3l0.8,0.6
                        V157.7z M132.7,188.7h-28.3l30.8,28.9L132.7,188.7z M165.9,188.7h-20.2l-9.2,28.6l32-19.2L165.9,188.7z M144.7,188.7l-11.1,0
                        l2.3,27.1L144.7,188.7z M1.4,214.2v1.6l1.1-1L1.4,214.2z M67.1,157.9l-39.9,14.3L1.7,213.2l1.7,0.9L67.1,157.9z M264,167.4
                        l-11.2,15.9c-0.2,0.2-0.4,0.3-0.7,0.1l-0.1-0.1l-0.1-0.1l0,24.5L264,167.4z M184.2,188.7l-17.3,0l2.5,8.8L184.2,188.7z M126.9,128.2
                        l-56.7,28.5l33.1,31L126.9,128.2z M189.1,187l-1.2,0.7l1.4,0c0,0,0.1,0,0.1,0L189.1,187z M127.6,129.4l-23.2,58.3h28.2L127.6,129.4z
                         M157.6,155.9l9.1,31.8l19.2,0l2.6-1.6L157.6,155.9z M128.4,127.4l5.2,60.3l11.5,0l10.8-33.5L128.4,127.4z M156.4,155.6l-10.3,32.1
                        h19.6L156.4,155.6z M277.3,125.3l-24.4,1.3L252,129v52.9l0.4,0.3l12.6-17.9l11.4-38.3c0.1-0.3,0.3-0.4,0.6-0.3l0.1,0l0.7,0.3
                        l-0.4-0.5C277.3,125.5,277.3,125.4,277.3,125.3z M251,131.9l-12.9,37.8l12.9,11.4V131.9z M1.7,82.3l24.9,89l28-45L1.7,82.3z
                         M55.6,126.7L55.6,126.7L28,170.9l40.7-14.6L55.6,126.7z M277.1,126.9l-10.4,34.9l0.1-0.2c0.1-0.1,0.2-0.2,0.3-0.2l0.1,0l35.4,0
                        l0.1-0.1l-24-33.7L277.1,126.9z M280.6,128.4l22.9,32.2l15.8-15.4l-0.1,0l-0.1,0L280.6,128.4z M56.7,126.7l12.9,29.2l56.2-28.2
                        L56.7,126.7z M343.2,121.8l-18.5,1l-4.8,21.8L343.2,121.8z M323.7,122.9l-45.2,2.4l1.1,1.5l39.5,17.2L323.7,122.9z M252,125.9
                        l-0.2,0.2h0.1L252,125.9C252,126,252,126,252,125.9z M298.9,79.9l-46.7,45.8c0,0,0.1,0,0.1,0l0.1,0l25.2-1.3L298.9,79.9z M1.4,4.4
                        v76.4l53.5,44.4L1.4,4.4z M26.5,58.5l29.1,65.8l22.9-43.1L26.5,58.5z M299.7,80.6l-20.9,43.6l45.1-2.4l3.4-15.5l-26.4-25.6
                        L299.7,80.6z M328.1,107.2l-3.2,14.6l17.3-0.9L328.1,107.2z M333.2,83.9l-4.9,22.1l15.4,14.9c0.1,0.1,0.1,0.1,0.1,0.2l33.4-32.6
                        l0-0.4L333.2,83.9z M302.4,80.9l25.1,24.3l4.7-21.4L302.4,80.9z M377.2,59.8l-41,10.2l-2.8,12.9l43.8,4.3V59.8z M335.2,70.3
                        L300.5,79l0.8,0.8l31.1,3L335.2,70.3z M299.5,79.4l-0.2,0.2c0,0,0.1,0,0.1,0l0.1,0l0.3,0L299.5,79.4z M367.3,40.3l-29.8,28.4
                        l39.6-9.9L367.3,40.3z M377.2,3.2l-18.7,18.3l18.8,35.4l0-7.5L377.2,3.2z"></path>
</svg>